<?xml version="1.0" encoding="utf-8"?>
<!-- Generator: Adobe Illustrator 17.0.0, SVG Export Plug-In . SVG Version: 6.00 Build 0)  -->
<!DOCTYPE svg PUBLIC "-//W3C//DTD SVG 1.1//EN" "http://www.w3.org/Graphics/SVG/1.1/DTD/svg11.dtd">
<svg version="1.1" id="Layer_1" xmlns="http://www.w3.org/2000/svg" xmlns:xlink="http://www.w3.org/1999/xlink" x="0px" y="0px"
	 width="485.402px" height="239.262px" viewBox="0 0 485.402 239.262" enable-background="new 0 0 485.402 239.262"
	 xml:space="preserve">
<polygon fill="#2DB99F" points="195.521,0 195.521,72.63 148.341,102.397 "/>
<polygon fill="#1F8170" points="289.881,0 289.881,72.63 337.061,102.397 "/>
<polygon fill="#2DB99F" points="242.701,29.766 242.701,102.397 289.881,72.63 289.881,0 "/>
<polygon fill="#1F8170" points="195.521,0 195.521,72.63 242.701,102.397 242.701,29.766 "/>
<path fill="#2DB99F" d="M69.926,148.426c-8.349,0-14.938,5.387-20.922,11.249c-2.143-7.177-8.248-11.249-17.018-11.249
	c-6.133,0-12.601,3.254-19.251,9.68v-7.85H0v64.461h12.735v-44.73c5.054-4.734,12.059-9.679,16.933-9.679
	c5.521,0,8.149,2.479,8.149,16.567v37.842h12.736v-44.732c5.17-4.864,12.245-9.677,16.689-9.677c6.511,0,8.394,3.716,8.394,16.567
	v37.842h12.735v-42.722C88.371,155.696,82.683,148.426,69.926,148.426z"/>
<path fill="#2DB99F" d="M128.658,148.426c-19.718,0-29.303,11.301-29.303,34.549c0,22.591,10.024,33.572,30.645,33.572
	c8.29,0,15.232-2.209,20.635-6.565l0.775-0.625l-7.664-9.58l-0.79,0.79c-2.46,2.46-7.966,5.075-13.322,5.075
	c-13.687,0-16.948-10.225-17.165-19.228h42.686v-8.441C155.154,158.367,146.24,148.426,128.658,148.426z M128.17,158.966
	c9.667,0,14.125,5.227,14.361,16.909h-29.857C113.846,164.499,118.922,158.966,128.17,158.966z"/>
<path fill="#2DB99F" d="M260.463,148.426c-10.729,0-18.61,2.398-24.092,7.333l-0.706,0.635l7.484,9.245l0.783-0.71
	c4.272-3.871,9.294-5.598,16.286-5.598c9.902,0,14.128,3.422,14.128,11.443v2.11c-5.396,0.337-10.113,0.695-15.209,1.288
	c-12.809,1.36-25.903,5.034-25.903,21.977c0,12.391,8.102,20.397,20.641,20.397c7.748,0,13.719-3.236,20.472-8.552v6.722h12.735
	v-43.454C287.082,155.042,279.37,148.426,260.463,148.426z M270.35,183.462c1.4-0.14,2.701-0.269,3.997-0.379v13.676
	c-5.263,4.092-11.203,8.639-17.178,8.639c-7.391,0-10.833-3.017-10.833-9.492c0-8.62,7.118-10.957,18.604-11.935
	C266.971,183.797,268.727,183.623,270.35,183.462z"/>
<path fill="#2DB99F" d="M410.325,194.954c-7.243,6.088-14.1,9.711-18.396,9.711c-7.931,0-10.102-3.562-10.102-16.567v-37.842
	h-12.735v41.502c0,16.681,6.712,24.789,20.519,24.789c6.211,0,13.506-3.476,20.715-9.833v8.003h12.735v-64.461h-12.735v44.698
	H410.325z"/>
<path fill="#2DB99F" d="M462.063,176.237l-0.847-0.211c-0.441-0.107-0.897-0.215-1.363-0.324
	c-5.236-1.229-11.172-2.624-11.172-8.342c0-7.873,9.939-8.271,11.932-8.271c5.936,0,10.748,2.435,13.551,6.854l0.511,0.806
	l10.497-5.978l-0.521-0.876c-4.264-7.182-13.067-11.469-23.55-11.469c-11.491,0-24.911,5.183-24.911,19.787
	c0,13.583,10.68,17.39,21.621,20.124c12.237,3.029,15.099,4.214,15.099,8.911c0,3.94-2.324,8.637-13.395,8.637
	c-4.708,0-11.113-1.232-14.896-7.105l-0.513-0.796l-10.465,5.959l0.478,0.864c4.779,8.656,16.001,11.74,24.908,11.74
	c16.516,0,26.375-7.534,26.375-20.153C485.402,182.052,473.003,178.963,462.063,176.237z"/>
<path fill="#2DB99F" d="M332.905,148.426c-6.613,0-13.43,2.493-19.008,6.899v-20.579h-12.735v80.824h4.538l7.202-2.034
	c0.232,0.065,0.49,0.14,0.772,0.222c3.136,0.905,9.661,2.789,18.254,2.789c16.744,0,26.741-12.915,26.741-34.549
	C358.67,160.349,349.52,148.426,332.905,148.426z M313.897,167.076c3.347-2.934,9.717-7.501,16.934-7.501
	c10.055,0,14.737,7.202,14.737,22.667c0,14.932-5.624,23.155-15.835,23.155c-8.603,0-12.883-1.594-15.836-3.24V167.076z"/>
<path fill="#2DB99F" d="M217.764,149.338l-7.202,2.034c-0.232-0.065-0.49-0.14-0.772-0.222c-3.136-0.905-9.661-2.789-18.254-2.789
	c-16.744,0-26.741,12.915-26.741,34.549c0,21.649,9.15,33.572,25.765,33.572c5.323,0,10.776-1.618,15.61-4.545
	c1.135-0.623,2.267-1.302,3.398-2.088v4.257c0,10.381-4.694,14.615-16.201,14.615c-6.681,0-13.152-2.609-16.665-4.845l-0.975-0.62
	l-4.611,10.262l0.732,0.464c4.008,2.539,13.375,5.279,21.519,5.279c11.841,0,19.883-2.949,24.427-9.1
	c3.032-4.104,4.509-9.63,4.509-16.665v-5.366v-58.793L217.764,149.338L217.764,149.338z M209.566,197.832
	c-3.347,2.934-9.717,7.501-16.934,7.501c-10.055,0-14.737-7.202-14.737-22.667c0-14.932,5.624-23.155,15.835-23.155
	c8.603,0,12.883,1.594,15.836,3.24V197.832z"/>
</svg>
