<?xml version="1.0" encoding="utf-8"?>
<!-- Generator: Adobe Illustrator 17.0.0, SVG Export Plug-In . SVG Version: 6.00 Build 0)  -->
<!DOCTYPE svg PUBLIC "-//W3C//DTD SVG 1.1//EN" "http://www.w3.org/Graphics/SVG/1.1/DTD/svg11.dtd">
<svg version="1.1" id="Layer_1" xmlns="http://www.w3.org/2000/svg" xmlns:xlink="http://www.w3.org/1999/xlink" x="0px" y="0px"
	 width="900px" height="405.061px" viewBox="0 0 900 405.061" enable-background="new 0 0 900 405.061" xml:space="preserve">
<g>
	<g>
		<path fill="#F7961D" d="M248.606,249.784h2.33l5.254,13.936c1.599,4.28,2.612,7.166,3.038,8.658h0.137
			c0.64-1.965,1.683-4.896,3.13-8.795l5.254-13.798h2.33l-11.125,28.853c-0.899,2.345-1.653,3.929-2.262,4.752
			c-0.609,0.822-1.321,1.439-2.136,1.85c-0.815,0.411-1.801,0.617-2.959,0.617c-0.868,0-1.835-0.16-2.901-0.48v-1.965
			c0.883,0.243,1.835,0.366,2.856,0.366c0.777,0,1.462-0.183,2.056-0.548c0.594-0.366,1.131-0.933,1.611-1.702
			c0.48-0.769,1.036-1.988,1.668-3.655c0.632-1.668,1.04-2.753,1.222-3.255L248.606,249.784z"/>
		<path fill="#F7961D" d="M293.84,262.166c0,4.051-0.983,7.215-2.947,9.492c-1.965,2.277-4.676,3.415-8.133,3.415
			c-2.178,0-4.097-0.525-5.757-1.576c-1.66-1.051-2.932-2.558-3.815-4.523c-0.884-1.965-1.325-4.234-1.325-6.807
			c0-4.051,0.983-7.208,2.947-9.469c1.965-2.262,4.66-3.393,8.087-3.393c3.411,0,6.088,1.146,8.03,3.438
			C292.869,255.034,293.84,258.176,293.84,262.166z M274.239,262.166c0,3.412,0.75,6.073,2.25,7.984
			c1.5,1.911,3.621,2.867,6.362,2.867c2.741,0,4.862-0.956,6.362-2.867c1.5-1.911,2.25-4.572,2.25-7.984
			c0-3.427-0.758-6.084-2.273-7.973c-1.516-1.888-3.644-2.833-6.385-2.833s-4.855,0.941-6.339,2.821
			C274.981,256.063,274.239,258.724,274.239,262.166z"/>
		<path fill="#F7961D" d="M319.153,249.784v1.576l-5.14,0.32c1.371,1.706,2.056,3.579,2.056,5.62c0,2.391-0.796,4.329-2.387,5.814
			c-1.592,1.485-3.728,2.227-6.408,2.227c-1.127,0-1.919-0.046-2.376-0.137c-0.899,0.472-1.584,1.028-2.056,1.667
			c-0.472,0.64-0.708,1.318-0.708,2.033c0,0.792,0.301,1.371,0.902,1.736c0.602,0.366,1.611,0.548,3.027,0.548h4.341
			c2.696,0,4.759,0.545,6.191,1.633c1.431,1.089,2.147,2.699,2.147,4.832c0,2.619-1.062,4.641-3.187,6.065
			c-2.125,1.424-5.152,2.136-9.081,2.136c-3.122,0-5.54-0.602-7.253-1.805c-1.713-1.203-2.57-2.879-2.57-5.026
			c0-1.706,0.529-3.122,1.588-4.249c1.058-1.127,2.494-1.896,4.306-2.307c-0.746-0.32-1.344-0.773-1.793-1.359
			c-0.45-0.586-0.674-1.26-0.674-2.022c0-1.66,1.058-3.122,3.175-4.386c-1.447-0.594-2.574-1.527-3.381-2.799
			c-0.808-1.271-1.211-2.73-1.211-4.375c0-2.482,0.788-4.474,2.365-5.974c1.576-1.5,3.704-2.25,6.385-2.25
			c1.629,0,2.893,0.16,3.792,0.48H319.153z M299.049,278.819c0,3.411,2.536,5.117,7.607,5.117c6.518,0,9.778-2.079,9.778-6.236
			c0-1.493-0.51-2.574-1.531-3.244c-1.02-0.67-2.673-1.005-4.957-1.005h-4.066C301.326,273.451,299.049,275.24,299.049,278.819z
			 M300.945,257.528c0,1.919,0.583,3.408,1.748,4.466c1.165,1.059,2.722,1.588,4.672,1.588c2.071,0,3.659-0.525,4.763-1.576
			c1.104-1.051,1.656-2.574,1.656-4.569c0-2.117-0.567-3.704-1.702-4.763c-1.135-1.058-2.723-1.588-4.763-1.588
			c-1.98,0-3.537,0.568-4.672,1.702C301.513,253.923,300.945,255.503,300.945,257.528z"/>
		<path fill="#F7961D" d="M339.325,274.616l-0.571-3.93h-0.183c-1.249,1.599-2.532,2.73-3.85,3.393
			c-1.318,0.662-2.875,0.994-4.672,0.994c-2.437,0-4.333-0.624-5.688-1.873c-1.356-1.249-2.033-2.977-2.033-5.186
			c0-2.421,1.009-4.302,3.027-5.642c2.018-1.34,4.938-2.048,8.761-2.125l4.729-0.137v-1.645c0-2.36-0.48-4.142-1.439-5.346
			c-0.96-1.203-2.505-1.805-4.637-1.805c-2.3,0-4.683,0.64-7.151,1.919l-0.845-1.965c2.726-1.279,5.422-1.919,8.087-1.919
			c2.726,0,4.763,0.708,6.111,2.125c1.348,1.416,2.022,3.625,2.022,6.625v16.517H339.325z M330.187,273.017
			c2.65,0,4.74-0.757,6.271-2.273c1.531-1.515,2.296-3.621,2.296-6.316v-2.444l-4.341,0.183c-3.488,0.168-5.974,0.712-7.459,1.633
			c-1.485,0.921-2.227,2.357-2.227,4.306c0,1.553,0.476,2.761,1.428,3.621C327.106,272.587,328.451,273.017,330.187,273.017z"/>
		<path fill="#F7961D" d="M376.585,268.151c0,2.224-0.845,3.933-2.536,5.129c-1.691,1.196-4.089,1.793-7.196,1.793
			c-3.32,0-5.955-0.51-7.904-1.531v-2.444c2.498,1.249,5.132,1.873,7.904,1.873c2.452,0,4.314-0.407,5.586-1.222
			c1.271-0.815,1.908-1.9,1.908-3.256c0-1.249-0.507-2.299-1.519-3.152c-1.013-0.853-2.677-1.691-4.991-2.513
			c-2.483-0.898-4.226-1.671-5.232-2.319c-1.005-0.647-1.763-1.378-2.273-2.193c-0.51-0.815-0.765-1.808-0.765-2.981
			c0-1.858,0.78-3.328,2.342-4.409c1.561-1.081,3.743-1.622,6.545-1.622c2.68,0,5.224,0.503,7.63,1.508l-0.845,2.056
			c-2.437-1.005-4.699-1.508-6.785-1.508c-2.026,0-3.632,0.335-4.82,1.005c-1.188,0.67-1.782,1.599-1.782,2.787
			c0,1.295,0.46,2.33,1.382,3.107c0.921,0.777,2.722,1.645,5.403,2.604c2.239,0.807,3.868,1.534,4.889,2.182
			c1.02,0.647,1.785,1.382,2.296,2.204C376.33,266.072,376.585,267.039,376.585,268.151z"/>
		<path fill="#F7961D" d="M392.075,275.073c-3.609,0-6.423-1.111-8.441-3.335c-2.018-2.223-3.027-5.338-3.027-9.344
			c0-3.96,0.975-7.131,2.924-9.515c1.949-2.383,4.576-3.575,7.882-3.575c2.924,0,5.232,1.021,6.922,3.061
			c1.691,2.041,2.536,4.813,2.536,8.315v1.828h-17.888c0.03,3.412,0.826,6.016,2.387,7.813c1.561,1.797,3.796,2.695,6.705,2.695
			c1.416,0,2.662-0.099,3.735-0.297c1.074-0.198,2.433-0.624,4.078-1.28v2.056c-1.401,0.61-2.696,1.025-3.884,1.245
			C394.816,274.962,393.506,275.073,392.075,275.073z M391.412,251.314c-2.391,0-4.31,0.788-5.757,2.364
			c-1.447,1.576-2.292,3.85-2.536,6.819h15.352c0-2.879-0.625-5.129-1.873-6.751C395.349,252.125,393.62,251.314,391.412,251.314z"
			/>
		<path fill="#F7961D" d="M416.566,249.304c1.051,0,2.178,0.107,3.381,0.32l-0.434,2.17c-1.036-0.259-2.11-0.388-3.221-0.388
			c-2.117,0-3.853,0.899-5.209,2.696c-1.356,1.797-2.033,4.066-2.033,6.808v13.707h-2.262v-24.833h1.919l0.228,4.478h0.16
			c1.02-1.827,2.109-3.111,3.267-3.849C413.519,249.673,414.921,249.304,416.566,249.304z"/>
		<path fill="#F7961D" d="M431.368,274.616l-9.595-24.833h2.33l6.419,16.882c0.853,2.163,1.492,4.051,1.919,5.666h0.137
			c0.624-2.071,1.264-3.975,1.919-5.711l6.419-16.837h2.33l-9.595,24.833H431.368z"/>
		<path fill="#F7961D" d="M450.603,274.616h-2.262v-24.833h2.262V274.616z"/>
		<path fill="#F7961D" d="M466.962,275.073c-3.549,0-6.328-1.12-8.338-3.358c-2.01-2.239-3.016-5.361-3.016-9.366
			c0-4.112,1.043-7.314,3.13-9.606c2.086-2.292,4.942-3.438,8.567-3.438c2.147,0,4.204,0.374,6.168,1.12l-0.617,2.01
			c-2.147-0.716-4.013-1.074-5.597-1.074c-3.046,0-5.354,0.941-6.922,2.821c-1.569,1.881-2.353,4.588-2.353,8.121
			c0,3.35,0.784,5.974,2.353,7.87c1.568,1.896,3.762,2.844,6.579,2.844c2.254,0,4.348-0.403,6.282-1.211v2.102
			C471.614,274.685,469.535,275.073,466.962,275.073z"/>
		<path fill="#F7961D" d="M486.497,275.073c-3.609,0-6.423-1.111-8.441-3.335c-2.018-2.223-3.027-5.338-3.027-9.344
			c0-3.96,0.975-7.131,2.924-9.515c1.949-2.383,4.576-3.575,7.881-3.575c2.924,0,5.232,1.021,6.922,3.061
			c1.691,2.041,2.536,4.813,2.536,8.315v1.828h-17.888c0.03,3.412,0.826,6.016,2.387,7.813c1.561,1.797,3.796,2.695,6.705,2.695
			c1.417,0,2.662-0.099,3.735-0.297c1.074-0.198,2.433-0.624,4.078-1.28v2.056c-1.401,0.61-2.696,1.025-3.884,1.245
			C489.238,274.962,487.928,275.073,486.497,275.073z M485.834,251.314c-2.391,0-4.31,0.788-5.757,2.364
			c-1.447,1.576-2.292,3.85-2.536,6.819h15.352c0-2.879-0.625-5.129-1.873-6.751C489.771,252.125,488.042,251.314,485.834,251.314z"
			/>
		<path fill="#F7961D" d="M524.214,275.073c-3.549,0-6.328-1.12-8.339-3.358c-2.01-2.239-3.016-5.361-3.016-9.366
			c0-4.112,1.043-7.314,3.13-9.606c2.086-2.292,4.942-3.438,8.567-3.438c2.147,0,4.203,0.374,6.168,1.12l-0.617,2.01
			c-2.147-0.716-4.013-1.074-5.597-1.074c-3.046,0-5.354,0.941-6.922,2.821c-1.569,1.881-2.353,4.588-2.353,8.121
			c0,3.35,0.784,5.974,2.353,7.87c1.568,1.896,3.762,2.844,6.579,2.844c2.254,0,4.348-0.403,6.282-1.211v2.102
			C528.866,274.685,526.788,275.073,524.214,275.073z"/>
		<path fill="#F7961D" d="M556.129,262.166c0,4.051-0.982,7.215-2.947,9.492c-1.965,2.277-4.676,3.415-8.133,3.415
			c-2.178,0-4.097-0.525-5.757-1.576c-1.66-1.051-2.932-2.558-3.815-4.523c-0.884-1.965-1.325-4.234-1.325-6.807
			c0-4.051,0.982-7.208,2.947-9.469c1.965-2.262,4.66-3.393,8.087-3.393c3.412,0,6.088,1.146,8.03,3.438
			C555.158,255.034,556.129,258.176,556.129,262.166z M536.528,262.166c0,3.412,0.75,6.073,2.25,7.984
			c1.5,1.911,3.621,2.867,6.362,2.867s4.862-0.956,6.362-2.867c1.5-1.911,2.25-4.572,2.25-7.984c0-3.427-0.758-6.084-2.273-7.973
			c-1.515-1.888-3.643-2.833-6.385-2.833s-4.855,0.941-6.339,2.821C537.271,256.063,536.528,258.724,536.528,262.166z"/>
		<path fill="#F7961D" d="M564.035,249.784v16.083c0,2.498,0.525,4.314,1.576,5.448c1.051,1.135,2.68,1.702,4.889,1.702
			c2.954,0,5.129-0.746,6.522-2.239c1.394-1.492,2.091-3.921,2.091-7.287v-13.707h2.239v24.833h-1.919l-0.411-3.427h-0.137
			c-1.615,2.589-4.486,3.884-8.613,3.884c-5.651,0-8.476-3.023-8.476-9.069v-16.22H564.035z"/>
		<path fill="#F7961D" d="M606.047,274.616V258.51c0-2.498-0.526-4.314-1.576-5.449c-1.051-1.134-2.681-1.702-4.889-1.702
			c-2.97,0-5.144,0.75-6.522,2.25c-1.378,1.5-2.068,3.933-2.068,7.299v13.707h-2.262v-24.833h1.919l0.434,3.404h0.137
			c1.614-2.589,4.485-3.884,8.613-3.884c5.635,0,8.453,3.023,8.453,9.07v16.243H606.047z"/>
		<path fill="#F7961D" d="M626.242,275.073c-3.549,0-6.328-1.12-8.338-3.358c-2.011-2.239-3.016-5.361-3.016-9.366
			c0-4.112,1.043-7.314,3.13-9.606c2.086-2.292,4.942-3.438,8.567-3.438c2.147,0,4.203,0.374,6.168,1.12l-0.617,2.01
			c-2.147-0.716-4.013-1.074-5.597-1.074c-3.046,0-5.354,0.941-6.922,2.821c-1.569,1.881-2.353,4.588-2.353,8.121
			c0,3.35,0.784,5.974,2.353,7.87c1.568,1.896,3.761,2.844,6.579,2.844c2.254,0,4.348-0.403,6.282-1.211v2.102
			C630.895,274.685,628.816,275.073,626.242,275.073z"/>
		<path fill="#F7961D" d="M641.753,274.616h-2.262v-24.833h2.262V274.616z"/>
		<path fill="#F7961D" d="M651.394,274.616h-2.262v-35.547h2.262V274.616z"/>
	</g>
	<g>
		<path fill="#F7961D" d="M482.026,186.227l-0.003-0.032c-0.393-5.822-1.428-13.091-5.303-21.425
			c-4.998,11.233-14.443,13.034-19.957,13.037h0c-0.467,0-0.84-0.011-1.14-0.035c-0.231-0.014-0.941-0.108-1.018-0.128
			c-0.562-0.102-0.839-0.464-1.169-0.963c-0.196-0.295-0.226-0.62-0.081-0.889c0.196-0.366,0.682-0.552,1.243-0.471l0.903,0.102
			c0.494,0.04,1.012,0.06,1.534,0.06c2.401,0,6.004-0.425,9.537-2.45c3.96-2.27,6.89-6.004,8.735-11.106
			c-1.339-2.526-2.943-5.14-4.875-7.835c-13.57-18.938-18.26-29.433-19.813-34.887c-2.335,7.235-7.727,18.621-20.039,34.763
			c-1.869,2.451-3.8,5.277-5.57,8.409c1.956,5.005,6.797,9.478,12.67,11.692c2.201,0.829,4.424,1.268,6.428,1.268
			c1.888,0,3.548-0.37,4.935-1.101c0.186-0.092,4.428-2.226,4.704-5.691c0.061-0.758-0.21-1.502-0.761-2.097
			c-0.637-0.693-1.587-1.107-2.544-1.107c-1.881,0-3.3,1.31-3.3,3.046c0,1.147,0.12,2.183,1.59,3.242
			c0.372,0.269,0.445,0.532,0.441,0.704c-0.004,0.157-0.074,0.386-0.388,0.592c-0.631,0.406-1.161,0.46-1.623,0.188
			c-1.648-0.957-2.383-2.337-2.383-4.476c0-3.122,2.54-5.662,5.663-5.662c1.626,0,3.188,0.68,4.284,1.867
			c1.004,1.088,1.494,2.469,1.378,3.89c-0.378,4.721-5.422,7.333-5.996,7.615c-1.707,0.898-3.724,1.353-5.994,1.353
			c-2.322,0-4.768-0.477-7.27-1.419c-5.797-2.188-10.698-6.408-13.239-11.284c-3.949,7.804-6.655,17.222-5.152,27.337l0.005,0.039
			c1.817,15.724,14.969,33.41,30.936,33.648c0.11,0.002,0.223,0.003,0.333,0.003c0.379,0,0.756-0.013,1.133-0.033
			c3.689-8.995,1.749-34.807-0.023-47.482c-0.041-0.482,0.071-1.298,0.741-1.37c0.811-0.087,1.474,1.087,1.516,1.552
			c0.005,0.058,0.021,0.21,0.045,0.446c1.007,9.776,1.479,17.543,1.699,22.338c0.516,11.291-0.041,19.41-1.655,24.276
			c15.685-2.446,28.744-21.04,28.967-36.455C482.165,188.289,482.124,187.258,482.026,186.227z"/>
		<path fill="#F7961D" d="M476.471,144.48c-2.023-8.762-2.562-14.226-2.519-17.608c-2.327,1.967-6.335,4.669-13.234,8.156
			c2.836,4.799,6.615,10.625,11.661,17.667c1.488,2.075,2.785,4.103,3.925,6.083C477.662,154.711,477.722,149.915,476.471,144.48z"
			/>
		<path fill="#F7961D" d="M504.888,169.56c-8.06-34.941-3.933-42.18-3.465-42.861l-0.232,0.312c0,0-1.043,5.542-22.081,17.308
			c1.468,6.686,1.081,12.543-1.161,17.412c-0.006,0.016-0.012,0.031-0.017,0.046c4.828,9.488,6.042,17.732,6.482,24.24
			c0.105,1.114,0.149,2.229,0.13,3.317c-0.124,8.593-4,18.318-10.369,26.01c-4.289,5.18-9.22,8.928-14.42,11.051
			c16.292,3.98,35.64-6.991,41.977-20.249c0.446-0.937,0.83-1.889,1.157-2.855C506.427,195.694,508.399,184.763,504.888,169.56z"/>
		<path fill="#F7961D" d="M426.798,216.595c-5.839-6.804-9.745-15.524-10.721-23.927c-1.685-11.384,1.642-21.867,6.208-30.321
			c-0.082-0.206-0.16-0.412-0.231-0.619c-0.051-0.111-0.096-0.225-0.145-0.337c-0.087-0.198-0.176-0.394-0.257-0.595
			c-0.062-0.154-0.117-0.312-0.176-0.468c-0.061-0.163-0.126-0.324-0.183-0.489c-0.064-0.183-0.12-0.37-0.179-0.556
			c-0.044-0.14-0.093-0.279-0.135-0.421c-0.062-0.21-0.116-0.424-0.173-0.637c-0.031-0.12-0.066-0.239-0.096-0.36
			c-0.058-0.235-0.108-0.474-0.158-0.713c-0.021-0.102-0.046-0.202-0.066-0.304c-0.051-0.26-0.095-0.524-0.138-0.788
			c-0.013-0.083-0.03-0.165-0.042-0.249c-0.043-0.283-0.079-0.57-0.112-0.858c-0.008-0.066-0.018-0.132-0.025-0.199
			c-0.033-0.306-0.059-0.616-0.081-0.927c-0.004-0.05-0.009-0.1-0.012-0.15c-0.022-0.327-0.036-0.657-0.046-0.99
			c-0.001-0.036-0.003-0.071-0.004-0.106c-0.009-0.347-0.01-0.697-0.007-1.05c0-0.022,0-0.044,0-0.067
			c0.005-0.364,0.017-0.732,0.035-1.102c0.001-0.012,0.001-0.023,0.001-0.035c0.019-0.38,0.046-0.763,0.079-1.15
			c0-0.002,0-0.005,0-0.007c0.135-1.563,0.388-3.181,0.756-4.849c-21.045-11.767-22.084-17.309-22.084-17.309l-0.232-0.312
			c0.472,0.682,4.599,7.92-3.465,42.861c-3.511,15.203-1.535,26.134,2.002,33.731c0.324,0.967,0.708,1.918,1.157,2.855
			c6.304,13.188,25.483,24.113,41.721,20.309C435.233,224.512,430.723,221.169,426.798,216.595z"/>
		<path fill="#F7961D" d="M428.672,152.514c4.912-6.439,8.696-12.085,11.611-16.986c-0.004-0.002-0.008-0.004-0.012-0.006
			c-0.223-0.11-0.443-0.22-0.66-0.329c-0.013-0.006-0.025-0.013-0.038-0.019c-0.215-0.108-0.426-0.215-0.635-0.321
			c-0.016-0.008-0.032-0.016-0.048-0.024c-0.209-0.106-0.415-0.212-0.618-0.316c-0.012-0.006-0.024-0.012-0.036-0.019
			c-0.207-0.107-0.411-0.213-0.613-0.318c-0.006-0.003-0.013-0.007-0.019-0.01c-0.205-0.107-0.408-0.214-0.608-0.319
			c-0.003-0.001-0.005-0.003-0.008-0.004c-2.652-1.404-4.808-2.667-6.56-3.793c-0.001-0.001-0.003-0.002-0.004-0.003
			c-0.127-0.082-0.251-0.162-0.374-0.242c-0.011-0.007-0.022-0.014-0.033-0.022c-0.116-0.076-0.23-0.151-0.342-0.225
			c-0.017-0.011-0.033-0.022-0.05-0.033c-0.107-0.071-0.212-0.142-0.316-0.212c-0.021-0.014-0.042-0.028-0.063-0.042
			c-0.099-0.067-0.196-0.133-0.292-0.199c-0.024-0.017-0.048-0.033-0.072-0.05c-0.092-0.064-0.183-0.127-0.273-0.19
			c-0.025-0.018-0.05-0.035-0.075-0.053c-0.087-0.061-0.172-0.122-0.257-0.182c-0.027-0.019-0.054-0.038-0.08-0.058
			c-0.081-0.058-0.16-0.115-0.239-0.172c-0.029-0.021-0.056-0.041-0.085-0.062c-0.076-0.056-0.151-0.111-0.225-0.165
			c-0.028-0.021-0.056-0.042-0.083-0.062c-0.072-0.054-0.144-0.107-0.214-0.161c-0.027-0.02-0.052-0.04-0.079-0.06
			c-0.07-0.053-0.139-0.106-0.206-0.158c-0.026-0.02-0.05-0.039-0.075-0.058c-0.067-0.052-0.133-0.104-0.198-0.155
			c-0.023-0.018-0.046-0.036-0.069-0.055c-0.065-0.052-0.13-0.104-0.193-0.155c-0.016-0.013-0.031-0.026-0.047-0.038
			c-0.151-0.123-0.297-0.243-0.435-0.36c0.003,0.208,0.003,0.425,0.001,0.649c-0.002,0.26-0.008,0.531-0.017,0.813
			c-0.11,3.431-0.749,8.546-2.501,16.143c-0.012,0.05-0.021,0.099-0.032,0.149c-0.074,0.324-0.144,0.646-0.208,0.965
			c-0.029,0.146-0.054,0.29-0.082,0.435c-0.042,0.222-0.084,0.444-0.122,0.663c-0.029,0.169-0.053,0.336-0.079,0.503
			c-0.03,0.191-0.06,0.382-0.086,0.571c-0.025,0.181-0.047,0.361-0.068,0.541c-0.021,0.17-0.041,0.34-0.059,0.509
			c-0.02,0.192-0.037,0.382-0.054,0.572c-0.013,0.151-0.025,0.301-0.036,0.451c-0.014,0.202-0.027,0.403-0.037,0.603
			c-0.007,0.13-0.012,0.26-0.017,0.389c-0.008,0.215-0.014,0.429-0.017,0.642c-0.001,0.105-0.001,0.209-0.001,0.313
			c0,0.233,0,0.465,0.006,0.695c0.002,0.068,0.005,0.135,0.007,0.202c0.082,2.443,0.512,4.703,1.293,6.768
			C425.479,156.905,427.096,154.58,428.672,152.514z"/>
	</g>
</g>
</svg>
